<?xml version="1.0" encoding="UTF-8" standalone="no"?>
<!DOCTYPE svg PUBLIC "-//W3C//DTD SVG 1.1//EN" "http://www.w3.org/Graphics/SVG/1.1/DTD/svg11.dtd">
<svg width="100%" height="100%" viewBox="0 0 635 99" version="1.1" xmlns="http://www.w3.org/2000/svg" xmlns:xlink="http://www.w3.org/1999/xlink" xml:space="preserve" style="fill-rule:evenodd;clip-rule:evenodd;stroke-linejoin:round;stroke-miterlimit:1.41421;">
    <g transform="matrix(1.33333,0,0,1.33333,0,0)">
        <g id="Artboard1" transform="matrix(0.974087,0,0,0.899953,-23.8146,-56.6204)">
            <rect x="24.448" y="62.915" width="488.614" height="82.488" style="fill:none;"/>
            <g transform="matrix(5.3474,0,0,0.892912,-34807.2,-619.738)">
                <g transform="matrix(0.191982,0,0,1.24443,5262.74,-125.023)">
                    <path d="M6516.76,757.001L6519.08,757.001C6519.37,758.876 6519.92,760.564 6520.73,762.064C6521.55,763.564 6522.57,764.835 6523.8,765.876C6525.02,766.918 6526.44,767.72 6528.05,768.283C6529.65,768.845 6531.39,769.126 6533.26,769.126C6536.35,769.126 6538.78,768.397 6540.58,766.939C6542.37,765.48 6543.26,763.501 6543.26,761.001C6543.26,759.96 6543.09,759.001 6542.73,758.126C6542.38,757.251 6541.78,756.408 6540.95,755.595C6540.12,754.783 6539,753.98 6537.61,753.189C6536.21,752.397 6534.45,751.543 6532.33,750.626C6529.74,749.501 6527.58,748.418 6525.83,747.376C6524.08,746.335 6522.68,745.251 6521.64,744.126C6520.6,743.001 6519.86,741.803 6519.42,740.533C6518.98,739.262 6518.76,737.814 6518.76,736.189C6518.76,734.272 6519.11,732.501 6519.8,730.876C6520.48,729.251 6521.45,727.845 6522.7,726.658C6523.95,725.47 6525.43,724.553 6527.14,723.908C6528.85,723.262 6530.72,722.939 6532.76,722.939C6534.6,722.939 6536.31,723.23 6537.89,723.814C6539.47,724.397 6541.08,725.335 6542.7,726.626L6544.33,723.814L6545.76,723.814L6546.45,736.251L6544.14,736.251C6543.14,732.835 6541.69,730.293 6539.8,728.626C6537.9,726.96 6535.62,726.126 6532.95,726.126C6530.41,726.126 6528.39,726.751 6526.89,728.001C6525.39,729.251 6524.64,730.939 6524.64,733.064C6524.64,734.064 6524.81,734.97 6525.14,735.783C6525.47,736.595 6526.01,737.366 6526.76,738.095C6527.51,738.824 6528.49,739.553 6529.7,740.283C6530.91,741.012 6532.41,741.772 6534.2,742.564C6537.28,743.939 6539.85,745.22 6541.89,746.408C6543.93,747.595 6545.56,748.783 6546.76,749.97C6547.97,751.158 6548.83,752.408 6549.33,753.72C6549.83,755.033 6550.08,756.501 6550.08,758.126C6550.08,760.21 6549.66,762.126 6548.83,763.876C6547.99,765.626 6546.83,767.126 6545.33,768.376C6543.83,769.626 6542.03,770.595 6539.95,771.283C6537.87,771.97 6535.58,772.314 6533.08,772.314C6530.7,772.314 6528.57,771.98 6526.67,771.314C6524.77,770.647 6522.85,769.522 6520.89,767.939L6519.14,771.001L6517.7,771.001L6516.76,757.001Z" style="fill:none;"/>
                    <path d="M6582.45,751.689C6582.45,750.147 6582.22,748.72 6581.76,747.408C6581.31,746.095 6580.66,744.97 6579.83,744.033C6578.99,743.095 6578.01,742.355 6576.89,741.814C6575.76,741.272 6574.56,741.001 6573.26,741.001C6571.76,741.001 6570.42,741.335 6569.23,742.001C6568.05,742.668 6567.02,743.616 6566.17,744.845C6565.32,746.074 6564.66,747.564 6564.2,749.314C6563.74,751.064 6563.51,753.001 6563.51,755.126C6563.51,757.293 6563.74,759.251 6564.2,761.001C6564.66,762.751 6565.32,764.241 6566.17,765.47C6567.02,766.699 6568.06,767.647 6569.26,768.314C6570.47,768.98 6571.83,769.314 6573.33,769.314C6575.03,769.314 6576.58,768.918 6577.95,768.126C6579.33,767.335 6580.37,766.21 6581.08,764.751C6581.99,762.918 6582.45,760.397 6582.45,757.189L6582.45,751.689ZM6582.64,767.189L6582.39,767.189C6580.93,769.022 6579.42,770.335 6577.86,771.126C6576.3,771.918 6574.41,772.314 6572.2,772.314C6569.87,772.314 6567.74,771.908 6565.83,771.095C6563.91,770.283 6562.25,769.137 6560.86,767.658C6559.46,766.178 6558.38,764.408 6557.61,762.345C6556.84,760.283 6556.45,758.022 6556.45,755.564C6556.45,753.105 6556.87,750.803 6557.7,748.658C6558.53,746.512 6559.68,744.647 6561.14,743.064C6562.6,741.48 6564.31,740.23 6566.26,739.314C6568.22,738.397 6570.33,737.939 6572.58,737.939C6574.83,737.939 6576.99,738.397 6579.08,739.314C6581.16,740.23 6582.89,741.46 6584.26,743.001L6587.01,738.689L6588.58,738.689L6588.58,777.314C6588.58,779.064 6588.63,780.439 6588.73,781.439C6588.84,782.439 6589.11,783.21 6589.55,783.751C6589.98,784.293 6590.63,784.647 6591.48,784.814C6592.34,784.98 6593.51,785.085 6595.01,785.126L6595.01,787.314L6575.95,787.314L6575.95,785.126C6577.28,785.085 6578.38,784.949 6579.23,784.72C6580.09,784.491 6580.76,784.095 6581.26,783.533C6581.76,782.97 6582.12,782.22 6582.33,781.283C6582.53,780.345 6582.64,779.168 6582.64,777.751L6582.64,767.189Z" style="fill:none;"/>
                    <path d="M6623.2,748.564C6623.2,746.855 6623.16,745.512 6623.08,744.533C6622.99,743.553 6622.77,742.803 6622.42,742.283C6622.07,741.762 6621.55,741.408 6620.86,741.22C6620.17,741.033 6619.22,740.876 6618.01,740.751L6618.01,738.564L6629.33,738.564L6629.33,757.751C6629.33,760.126 6629.36,762.064 6629.42,763.564C6629.48,765.064 6629.58,766.189 6629.7,766.939C6629.78,767.48 6629.92,767.908 6630.11,768.22C6630.3,768.533 6630.58,768.783 6630.95,768.97C6631.33,769.158 6631.82,769.283 6632.42,769.345C6633.02,769.408 6633.81,769.439 6634.76,769.439L6634.76,771.626L6624.45,772.376L6623.76,764.876L6623.51,764.876C6621.93,767.46 6620.11,769.345 6618.05,770.533C6615.98,771.72 6613.83,772.314 6611.58,772.314C6609.83,772.314 6608.13,771.98 6606.48,771.314C6604.84,770.647 6603.6,769.751 6602.76,768.626C6602.06,767.71 6601.55,766.439 6601.23,764.814C6600.92,763.189 6600.76,761.085 6600.76,758.501L6600.76,748.564C6600.76,746.855 6600.72,745.512 6600.64,744.533C6600.56,743.553 6600.34,742.803 6599.98,742.283C6599.63,741.762 6599.11,741.408 6598.42,741.22C6597.73,741.033 6596.78,740.876 6595.58,740.751L6595.58,738.564L6606.89,738.564L6606.89,755.626C6606.89,760.168 6607.42,763.46 6608.48,765.501C6609.55,767.543 6611.24,768.564 6613.58,768.564C6617.24,768.564 6620.1,766.168 6622.14,761.376C6622.35,760.876 6622.51,760.418 6622.64,760.001C6622.76,759.585 6622.87,759.126 6622.95,758.626C6623.03,758.126 6623.1,757.564 6623.14,756.939C6623.18,756.314 6623.2,755.564 6623.2,754.689L6623.2,748.564Z" style="fill:none;"/>
                    <path d="M6657.95,753.189C6655.58,754.105 6653.57,755.001 6651.92,755.876C6650.27,756.751 6648.95,757.626 6647.95,758.501C6646.95,759.376 6646.23,760.251 6645.8,761.126C6645.36,762.001 6645.14,762.897 6645.14,763.814C6645.14,765.189 6645.6,766.314 6646.51,767.189C6647.43,768.064 6648.64,768.501 6650.14,768.501C6651.22,768.501 6652.23,768.23 6653.17,767.689C6654.11,767.147 6654.93,766.408 6655.64,765.47C6656.35,764.533 6656.91,763.428 6657.33,762.158C6657.74,760.887 6657.95,759.543 6657.95,758.126L6657.95,753.189ZM6657.95,750.501L6657.95,747.939C6657.95,742.855 6655.78,740.314 6651.45,740.314C6650.74,740.314 6650.14,740.376 6649.64,740.501C6649.14,740.626 6648.72,740.835 6648.39,741.126C6648.06,741.418 6647.75,741.835 6647.48,742.376C6647.21,742.918 6646.95,743.585 6646.7,744.376C6646.24,745.585 6645.8,746.387 6645.36,746.783C6644.92,747.178 6644.28,747.376 6643.45,747.376C6641.37,747.376 6640.33,746.335 6640.33,744.251C6640.33,742.251 6641.39,740.699 6643.51,739.595C6645.64,738.491 6648.66,737.939 6652.58,737.939C6656.74,737.939 6659.7,738.678 6661.45,740.158C6663.2,741.637 6664.08,744.147 6664.08,747.689L6664.08,761.689C6664.08,766.439 6665.01,768.814 6666.89,768.814C6667.47,768.814 6668.03,768.741 6668.58,768.595C6669.12,768.449 6669.58,768.064 6669.95,767.439L6670.83,768.939C6670.33,769.897 6669.41,770.699 6668.08,771.345C6666.74,771.991 6665.35,772.314 6663.89,772.314C6662.06,772.314 6660.69,771.73 6659.8,770.564C6658.9,769.397 6658.45,767.751 6658.45,765.626L6658.14,765.626C6657.06,767.668 6655.56,769.283 6653.64,770.47C6651.72,771.658 6649.6,772.251 6647.26,772.251C6644.64,772.251 6642.58,771.585 6641.08,770.251C6639.58,768.918 6638.83,767.126 6638.83,764.876C6638.83,763.876 6639,762.918 6639.36,762.001C6639.71,761.085 6640.28,760.21 6641.08,759.376C6641.87,758.543 6642.91,757.72 6644.2,756.908C6645.49,756.095 6647.08,755.272 6648.95,754.439L6657.95,750.501Z" style="fill:none;"/>
                    <path d="M6684.64,761.751C6684.64,763.46 6684.68,764.814 6684.76,765.814C6684.85,766.814 6685.07,767.574 6685.42,768.095C6685.77,768.616 6686.28,768.96 6686.95,769.126C6687.62,769.293 6688.56,769.418 6689.76,769.501L6689.76,771.689L6673.14,771.689L6673.14,769.501C6674.35,769.46 6675.31,769.345 6676.01,769.158C6676.72,768.97 6677.26,768.626 6677.64,768.126C6678.01,767.626 6678.25,766.908 6678.36,765.97C6678.46,765.033 6678.51,763.772 6678.51,762.189L6678.51,754.876C6678.51,752.043 6678.48,749.835 6678.42,748.251C6678.36,746.668 6678.15,745.501 6677.8,744.751C6677.44,744.001 6676.89,743.553 6676.14,743.408C6675.39,743.262 6674.35,743.189 6673.01,743.189L6673.01,741.001L6683.95,738.626L6684.83,746.376L6685.08,746.376C6685.62,745.126 6686.3,743.98 6687.11,742.939C6687.92,741.897 6688.81,741.012 6689.76,740.283C6690.72,739.553 6691.72,738.98 6692.76,738.564C6693.81,738.147 6694.87,737.939 6695.95,737.939C6697.28,737.939 6698.34,738.262 6699.11,738.908C6699.88,739.553 6700.26,740.418 6700.26,741.501C6700.26,742.501 6699.95,743.283 6699.33,743.845C6698.7,744.408 6697.81,744.689 6696.64,744.689C6695.97,744.689 6695.41,744.605 6694.95,744.439C6694.49,744.272 6694.09,744.095 6693.73,743.908C6693.38,743.72 6693.05,743.543 6692.73,743.376C6692.42,743.21 6692.08,743.126 6691.7,743.126C6690.58,743.126 6689.45,743.845 6688.33,745.283C6687.2,746.72 6686.33,748.543 6685.7,750.751C6685.37,751.96 6685.11,753.324 6684.92,754.845C6684.73,756.366 6684.64,757.96 6684.64,759.626L6684.64,761.751Z" style="fill:none;"/>
                    <path d="M6732.51,765.876C6728.97,770.168 6724.58,772.314 6719.33,772.314C6716.87,772.314 6714.64,771.908 6712.64,771.095C6710.64,770.283 6708.92,769.137 6707.48,767.658C6706.05,766.178 6704.93,764.408 6704.14,762.345C6703.35,760.283 6702.95,758.001 6702.95,755.501C6702.95,752.96 6703.37,750.605 6704.2,748.439C6705.03,746.272 6706.21,744.418 6707.73,742.876C6709.25,741.335 6711.07,740.126 6713.17,739.251C6715.27,738.376 6717.58,737.939 6720.08,737.939C6724.12,737.939 6727.24,739.033 6729.45,741.22C6731.66,743.408 6732.76,746.543 6732.76,750.626C6732.76,751.21 6732.65,751.564 6732.42,751.689C6732.19,751.814 6731.66,751.876 6730.83,751.876L6710.26,751.876C6710.18,752.21 6710.12,752.616 6710.08,753.095C6710.03,753.574 6710.01,754.105 6710.01,754.689C6710.01,756.855 6710.27,758.824 6710.8,760.595C6711.32,762.366 6712.07,763.876 6713.05,765.126C6714.02,766.376 6715.19,767.345 6716.55,768.033C6717.9,768.72 6719.41,769.064 6721.08,769.064C6722.83,769.064 6724.45,768.678 6725.95,767.908C6727.45,767.137 6728.99,765.876 6730.58,764.126L6732.51,765.876ZM6722.2,749.001C6723.03,749.001 6723.7,748.98 6724.2,748.939C6724.7,748.897 6725.08,748.814 6725.33,748.689C6725.58,748.564 6725.74,748.387 6725.83,748.158C6725.91,747.928 6725.95,747.626 6725.95,747.251C6725.95,745.335 6725.34,743.803 6724.11,742.658C6722.88,741.512 6721.2,740.939 6719.08,740.939C6714.58,740.939 6711.78,743.626 6710.7,749.001L6722.2,749.001Z" style="fill:none;"/>
                </g>
                <g transform="matrix(0.191982,0,0,1.24443,5262.74,-125.023)">
                    <path d="M6516.76,757.001L6519.08,757.001C6519.37,758.876 6519.92,760.564 6520.73,762.064C6521.55,763.564 6522.57,764.835 6523.8,765.876C6525.02,766.918 6526.44,767.72 6528.05,768.283C6529.65,768.845 6531.39,769.126 6533.26,769.126C6536.35,769.126 6538.78,768.397 6540.58,766.939C6542.37,765.48 6543.26,763.501 6543.26,761.001C6543.26,759.96 6543.09,759.001 6542.73,758.126C6542.38,757.251 6541.78,756.408 6540.95,755.595C6540.12,754.783 6539,753.98 6537.61,753.189C6536.21,752.397 6534.45,751.543 6532.33,750.626C6529.74,749.501 6527.58,748.418 6525.83,747.376C6524.08,746.335 6522.68,745.251 6521.64,744.126C6520.6,743.001 6519.86,741.803 6519.42,740.533C6518.98,739.262 6518.76,737.814 6518.76,736.189C6518.76,734.272 6519.11,732.501 6519.8,730.876C6520.48,729.251 6521.45,727.845 6522.7,726.658C6523.95,725.47 6525.43,724.553 6527.14,723.908C6528.85,723.262 6530.72,722.939 6532.76,722.939C6534.6,722.939 6536.31,723.23 6537.89,723.814C6539.47,724.397 6541.08,725.335 6542.7,726.626L6544.33,723.814L6545.76,723.814L6546.45,736.251L6544.14,736.251C6543.14,732.835 6541.69,730.293 6539.8,728.626C6537.9,726.96 6535.62,726.126 6532.95,726.126C6530.41,726.126 6528.39,726.751 6526.89,728.001C6525.39,729.251 6524.64,730.939 6524.64,733.064C6524.64,734.064 6524.81,734.97 6525.14,735.783C6525.47,736.595 6526.01,737.366 6526.76,738.095C6527.51,738.824 6528.49,739.553 6529.7,740.283C6530.91,741.012 6532.41,741.772 6534.2,742.564C6537.28,743.939 6539.85,745.22 6541.89,746.408C6543.93,747.595 6545.56,748.783 6546.76,749.97C6547.97,751.158 6548.83,752.408 6549.33,753.72C6549.83,755.033 6550.08,756.501 6550.08,758.126C6550.08,760.21 6549.66,762.126 6548.83,763.876C6547.99,765.626 6546.83,767.126 6545.33,768.376C6543.83,769.626 6542.03,770.595 6539.95,771.283C6537.87,771.97 6535.58,772.314 6533.08,772.314C6530.7,772.314 6528.57,771.98 6526.67,771.314C6524.77,770.647 6522.85,769.522 6520.89,767.939L6519.14,771.001L6517.7,771.001L6516.76,757.001Z" style="fill:white;fill-rule:nonzero;"/>
                    <path d="M6582.45,751.689C6582.45,750.147 6582.22,748.72 6581.76,747.408C6581.31,746.095 6580.66,744.97 6579.83,744.033C6578.99,743.095 6578.01,742.355 6576.89,741.814C6575.76,741.272 6574.56,741.001 6573.26,741.001C6571.76,741.001 6570.42,741.335 6569.23,742.001C6568.05,742.668 6567.02,743.616 6566.17,744.845C6565.32,746.074 6564.66,747.564 6564.2,749.314C6563.74,751.064 6563.51,753.001 6563.51,755.126C6563.51,757.293 6563.74,759.251 6564.2,761.001C6564.66,762.751 6565.32,764.241 6566.17,765.47C6567.02,766.699 6568.06,767.647 6569.26,768.314C6570.47,768.98 6571.83,769.314 6573.33,769.314C6575.03,769.314 6576.58,768.918 6577.95,768.126C6579.33,767.335 6580.37,766.21 6581.08,764.751C6581.99,762.918 6582.45,760.397 6582.45,757.189L6582.45,751.689ZM6582.64,767.189L6582.39,767.189C6580.93,769.022 6579.42,770.335 6577.86,771.126C6576.3,771.918 6574.41,772.314 6572.2,772.314C6569.87,772.314 6567.74,771.908 6565.83,771.095C6563.91,770.283 6562.25,769.137 6560.86,767.658C6559.46,766.178 6558.38,764.408 6557.61,762.345C6556.84,760.283 6556.45,758.022 6556.45,755.564C6556.45,753.105 6556.87,750.803 6557.7,748.658C6558.53,746.512 6559.68,744.647 6561.14,743.064C6562.6,741.48 6564.31,740.23 6566.26,739.314C6568.22,738.397 6570.33,737.939 6572.58,737.939C6574.83,737.939 6576.99,738.397 6579.08,739.314C6581.16,740.23 6582.89,741.46 6584.26,743.001L6587.01,738.689L6588.58,738.689L6588.58,777.314C6588.58,779.064 6588.63,780.439 6588.73,781.439C6588.84,782.439 6589.11,783.21 6589.55,783.751C6589.98,784.293 6590.63,784.647 6591.48,784.814C6592.34,784.98 6593.51,785.085 6595.01,785.126L6595.01,787.314L6575.95,787.314L6575.95,785.126C6577.28,785.085 6578.38,784.949 6579.23,784.72C6580.09,784.491 6580.76,784.095 6581.26,783.533C6581.76,782.97 6582.12,782.22 6582.33,781.283C6582.53,780.345 6582.64,779.168 6582.64,777.751L6582.64,767.189Z" style="fill:white;fill-rule:nonzero;"/>
                    <path d="M6623.2,748.564C6623.2,746.855 6623.16,745.512 6623.08,744.533C6622.99,743.553 6622.77,742.803 6622.42,742.283C6622.07,741.762 6621.55,741.408 6620.86,741.22C6620.17,741.033 6619.22,740.876 6618.01,740.751L6618.01,738.564L6629.33,738.564L6629.33,757.751C6629.33,760.126 6629.36,762.064 6629.42,763.564C6629.48,765.064 6629.58,766.189 6629.7,766.939C6629.78,767.48 6629.92,767.908 6630.11,768.22C6630.3,768.533 6630.58,768.783 6630.95,768.97C6631.33,769.158 6631.82,769.283 6632.42,769.345C6633.02,769.408 6633.81,769.439 6634.76,769.439L6634.76,771.626L6624.45,772.376L6623.76,764.876L6623.51,764.876C6621.93,767.46 6620.11,769.345 6618.05,770.533C6615.98,771.72 6613.83,772.314 6611.58,772.314C6609.83,772.314 6608.13,771.98 6606.48,771.314C6604.84,770.647 6603.6,769.751 6602.76,768.626C6602.06,767.71 6601.55,766.439 6601.23,764.814C6600.92,763.189 6600.76,761.085 6600.76,758.501L6600.76,748.564C6600.76,746.855 6600.72,745.512 6600.64,744.533C6600.56,743.553 6600.34,742.803 6599.98,742.283C6599.63,741.762 6599.11,741.408 6598.42,741.22C6597.73,741.033 6596.78,740.876 6595.58,740.751L6595.58,738.564L6606.89,738.564L6606.89,755.626C6606.89,760.168 6607.42,763.46 6608.48,765.501C6609.55,767.543 6611.24,768.564 6613.58,768.564C6617.24,768.564 6620.1,766.168 6622.14,761.376C6622.35,760.876 6622.51,760.418 6622.64,760.001C6622.76,759.585 6622.87,759.126 6622.95,758.626C6623.03,758.126 6623.1,757.564 6623.14,756.939C6623.18,756.314 6623.2,755.564 6623.2,754.689L6623.2,748.564Z" style="fill:white;fill-rule:nonzero;"/>
                    <path d="M6657.95,753.189C6655.58,754.105 6653.57,755.001 6651.92,755.876C6650.27,756.751 6648.95,757.626 6647.95,758.501C6646.95,759.376 6646.23,760.251 6645.8,761.126C6645.36,762.001 6645.14,762.897 6645.14,763.814C6645.14,765.189 6645.6,766.314 6646.51,767.189C6647.43,768.064 6648.64,768.501 6650.14,768.501C6651.22,768.501 6652.23,768.23 6653.17,767.689C6654.11,767.147 6654.93,766.408 6655.64,765.47C6656.35,764.533 6656.91,763.428 6657.33,762.158C6657.74,760.887 6657.95,759.543 6657.95,758.126L6657.95,753.189ZM6657.95,750.501L6657.95,747.939C6657.95,742.855 6655.78,740.314 6651.45,740.314C6650.74,740.314 6650.14,740.376 6649.64,740.501C6649.14,740.626 6648.72,740.835 6648.39,741.126C6648.06,741.418 6647.75,741.835 6647.48,742.376C6647.21,742.918 6646.95,743.585 6646.7,744.376C6646.24,745.585 6645.8,746.387 6645.36,746.783C6644.92,747.178 6644.28,747.376 6643.45,747.376C6641.37,747.376 6640.33,746.335 6640.33,744.251C6640.33,742.251 6641.39,740.699 6643.51,739.595C6645.64,738.491 6648.66,737.939 6652.58,737.939C6656.74,737.939 6659.7,738.678 6661.45,740.158C6663.2,741.637 6664.08,744.147 6664.08,747.689L6664.08,761.689C6664.08,766.439 6665.01,768.814 6666.89,768.814C6667.47,768.814 6668.03,768.741 6668.58,768.595C6669.12,768.449 6669.58,768.064 6669.95,767.439L6670.83,768.939C6670.33,769.897 6669.41,770.699 6668.08,771.345C6666.74,771.991 6665.35,772.314 6663.89,772.314C6662.06,772.314 6660.69,771.73 6659.8,770.564C6658.9,769.397 6658.45,767.751 6658.45,765.626L6658.14,765.626C6657.06,767.668 6655.56,769.283 6653.64,770.47C6651.72,771.658 6649.6,772.251 6647.26,772.251C6644.64,772.251 6642.58,771.585 6641.08,770.251C6639.58,768.918 6638.83,767.126 6638.83,764.876C6638.83,763.876 6639,762.918 6639.36,762.001C6639.71,761.085 6640.28,760.21 6641.08,759.376C6641.87,758.543 6642.91,757.72 6644.2,756.908C6645.49,756.095 6647.08,755.272 6648.95,754.439L6657.95,750.501Z" style="fill:white;fill-rule:nonzero;"/>
                    <path d="M6684.64,761.751C6684.64,763.46 6684.68,764.814 6684.76,765.814C6684.85,766.814 6685.07,767.574 6685.42,768.095C6685.77,768.616 6686.28,768.96 6686.95,769.126C6687.62,769.293 6688.56,769.418 6689.76,769.501L6689.76,771.689L6673.14,771.689L6673.14,769.501C6674.35,769.46 6675.31,769.345 6676.01,769.158C6676.72,768.97 6677.26,768.626 6677.64,768.126C6678.01,767.626 6678.25,766.908 6678.36,765.97C6678.46,765.033 6678.51,763.772 6678.51,762.189L6678.51,754.876C6678.51,752.043 6678.48,749.835 6678.42,748.251C6678.36,746.668 6678.15,745.501 6677.8,744.751C6677.44,744.001 6676.89,743.553 6676.14,743.408C6675.39,743.262 6674.35,743.189 6673.01,743.189L6673.01,741.001L6683.95,738.626L6684.83,746.376L6685.08,746.376C6685.62,745.126 6686.3,743.98 6687.11,742.939C6687.92,741.897 6688.81,741.012 6689.76,740.283C6690.72,739.553 6691.72,738.98 6692.76,738.564C6693.81,738.147 6694.87,737.939 6695.95,737.939C6697.28,737.939 6698.34,738.262 6699.11,738.908C6699.88,739.553 6700.26,740.418 6700.26,741.501C6700.26,742.501 6699.95,743.283 6699.33,743.845C6698.7,744.408 6697.81,744.689 6696.64,744.689C6695.97,744.689 6695.41,744.605 6694.95,744.439C6694.49,744.272 6694.09,744.095 6693.73,743.908C6693.38,743.72 6693.05,743.543 6692.73,743.376C6692.42,743.21 6692.08,743.126 6691.7,743.126C6690.58,743.126 6689.45,743.845 6688.33,745.283C6687.2,746.72 6686.33,748.543 6685.7,750.751C6685.37,751.96 6685.11,753.324 6684.92,754.845C6684.73,756.366 6684.64,757.96 6684.64,759.626L6684.64,761.751Z" style="fill:white;fill-rule:nonzero;"/>
                    <path d="M6732.51,765.876C6728.97,770.168 6724.58,772.314 6719.33,772.314C6716.87,772.314 6714.64,771.908 6712.64,771.095C6710.64,770.283 6708.92,769.137 6707.48,767.658C6706.05,766.178 6704.93,764.408 6704.14,762.345C6703.35,760.283 6702.95,758.001 6702.95,755.501C6702.95,752.96 6703.37,750.605 6704.2,748.439C6705.03,746.272 6706.21,744.418 6707.73,742.876C6709.25,741.335 6711.07,740.126 6713.17,739.251C6715.27,738.376 6717.58,737.939 6720.08,737.939C6724.12,737.939 6727.24,739.033 6729.45,741.22C6731.66,743.408 6732.76,746.543 6732.76,750.626C6732.76,751.21 6732.65,751.564 6732.42,751.689C6732.19,751.814 6731.66,751.876 6730.83,751.876L6710.26,751.876C6710.18,752.21 6710.12,752.616 6710.08,753.095C6710.03,753.574 6710.01,754.105 6710.01,754.689C6710.01,756.855 6710.27,758.824 6710.8,760.595C6711.32,762.366 6712.07,763.876 6713.05,765.126C6714.02,766.376 6715.19,767.345 6716.55,768.033C6717.9,768.72 6719.41,769.064 6721.08,769.064C6722.83,769.064 6724.45,768.678 6725.95,767.908C6727.45,767.137 6728.99,765.876 6730.58,764.126L6732.51,765.876ZM6722.2,749.001C6723.03,749.001 6723.7,748.98 6724.2,748.939C6724.7,748.897 6725.08,748.814 6725.33,748.689C6725.58,748.564 6725.74,748.387 6725.83,748.158C6725.91,747.928 6725.95,747.626 6725.95,747.251C6725.95,745.335 6725.34,743.803 6724.11,742.658C6722.88,741.512 6721.2,740.939 6719.08,740.939C6714.58,740.939 6711.78,743.626 6710.7,749.001L6722.2,749.001Z" style="fill:white;fill-rule:nonzero;"/>
                </g>
            </g>
            <g transform="matrix(0.341789,0,0,0.258895,257.532,-162.687)">
                <g transform="matrix(3.00361,0,0,4.29197,0,0)">
                    <path d="M36.625,244.021C36.625,246.354 36.198,248.542 35.344,250.583C34.49,252.625 33.313,254.406 31.813,255.927C30.313,257.448 28.552,258.646 26.531,259.521C24.51,260.396 22.354,260.833 20.063,260.833C17.688,260.833 15.5,260.302 13.5,259.24C11.5,258.177 9.781,256.688 8.344,254.771C6.906,252.854 5.792,250.573 5,247.927C4.208,245.281 3.813,242.354 3.813,239.146C3.813,235.354 4.333,231.781 5.375,228.427C6.417,225.073 7.833,222.135 9.625,219.615C11.417,217.094 13.521,215.104 15.938,213.646C18.354,212.188 20.917,211.458 23.625,211.458C25.125,211.458 26.531,211.625 27.844,211.958C29.156,212.292 30.302,212.74 31.281,213.302C32.26,213.865 33.031,214.542 33.594,215.333C34.156,216.125 34.438,216.958 34.438,217.833C34.438,218.833 34.135,219.625 33.531,220.208C32.927,220.792 32.104,221.083 31.063,221.083C29.854,221.083 28.99,220.729 28.469,220.021C27.948,219.313 27.458,218.531 27,217.677C26.542,216.823 25.958,216.042 25.25,215.333C24.542,214.625 23.396,214.271 21.813,214.271C20.354,214.271 19.021,214.771 17.813,215.771C16.604,216.771 15.542,218.146 14.625,219.896C13.708,221.646 13,223.729 12.5,226.146C12,228.563 11.75,231.167 11.75,233.958L11.938,234.083C13.271,232.125 14.719,230.698 16.281,229.802C17.844,228.906 19.688,228.458 21.813,228.458C23.938,228.458 25.896,228.854 27.688,229.646C29.479,230.438 31.042,231.531 32.375,232.927C33.708,234.323 34.75,235.969 35.5,237.865C36.25,239.76 36.625,241.813 36.625,244.021ZM11.625,242.521C11.625,252.854 14.521,258.021 20.313,258.021C23.188,258.021 25.323,256.906 26.719,254.677C28.115,252.448 28.813,248.979 28.813,244.271C28.813,240.104 28.146,236.938 26.813,234.771C25.479,232.604 23.521,231.521 20.938,231.521C19.021,231.521 17.333,232.146 15.875,233.396C14.417,234.646 13,236.667 11.625,239.458L11.625,242.521Z" style="fill:none;"/>
                    <path d="M62.5,211.458C65.042,211.458 67.438,212.104 69.688,213.396C71.938,214.688 73.896,216.458 75.563,218.708C77.229,220.958 78.552,223.604 79.531,226.646C80.51,229.688 81,232.979 81,236.521C81,239.896 80.51,243.063 79.531,246.021C78.552,248.979 77.229,251.552 75.563,253.74C73.896,255.927 71.938,257.656 69.688,258.927C67.438,260.198 65.042,260.833 62.5,260.833C59.958,260.833 57.563,260.198 55.313,258.927C53.063,257.656 51.104,255.927 49.438,253.74C47.771,251.552 46.448,248.979 45.469,246.021C44.49,243.063 44,239.896 44,236.521C44,232.979 44.49,229.688 45.469,226.646C46.448,223.604 47.771,220.958 49.438,218.708C51.104,216.458 53.063,214.688 55.313,213.396C57.563,212.104 59.958,211.458 62.5,211.458ZM62.5,257.833C64.125,257.833 65.573,257.5 66.844,256.833C68.115,256.167 69.198,255.021 70.094,253.396C70.99,251.771 71.677,249.604 72.156,246.896C72.635,244.188 72.875,240.792 72.875,236.708C72.875,232.458 72.635,228.917 72.156,226.083C71.677,223.25 71,220.969 70.125,219.24C69.25,217.51 68.167,216.281 66.875,215.552C65.583,214.823 64.125,214.458 62.5,214.458C60.875,214.458 59.417,214.823 58.125,215.552C56.833,216.281 55.75,217.51 54.875,219.24C54,220.969 53.323,223.25 52.844,226.083C52.365,228.917 52.125,232.458 52.125,236.708C52.125,240.792 52.365,244.188 52.844,246.896C53.323,249.604 54,251.771 54.875,253.396C55.75,255.021 56.833,256.167 58.125,256.833C59.417,257.5 60.875,257.833 62.5,257.833Z" style="fill:none;"/>
                    <path d="M87.688,256.771C87.688,255.604 88.083,254.625 88.875,253.833C89.667,253.042 90.625,252.646 91.75,252.646C92.917,252.646 93.896,253.042 94.688,253.833C95.479,254.625 95.875,255.604 95.875,256.771C95.875,257.896 95.479,258.854 94.688,259.646C93.896,260.438 92.917,260.833 91.75,260.833C90.625,260.833 89.667,260.438 88.875,259.646C88.083,258.854 87.688,257.896 87.688,256.771Z" style="fill:none;"/>
                    <path d="M131.688,255.021C130.188,256.854 128.25,258.281 125.875,259.302C123.5,260.323 120.938,260.833 118.188,260.833C115.979,260.833 113.948,260.427 112.094,259.615C110.24,258.802 108.646,257.656 107.313,256.177C105.979,254.698 104.948,252.917 104.219,250.833C103.49,248.75 103.125,246.438 103.125,243.896C103.125,241.229 103.542,238.823 104.375,236.677C105.208,234.531 106.385,232.698 107.906,231.177C109.427,229.656 111.26,228.49 113.406,227.677C115.552,226.865 117.917,226.458 120.5,226.458C122.125,226.458 123.604,226.594 124.938,226.865C126.271,227.135 127.427,227.51 128.406,227.99C129.385,228.469 130.146,229.052 130.688,229.74C131.229,230.427 131.5,231.167 131.5,231.958C131.5,232.792 131.229,233.438 130.688,233.896C130.146,234.354 129.396,234.583 128.438,234.583C127.688,234.583 127.063,234.427 126.563,234.115C126.063,233.802 125.417,233.104 124.625,232.021C123.792,231.063 122.99,230.385 122.219,229.99C121.448,229.594 120.458,229.396 119.25,229.396C116.292,229.396 114.052,230.542 112.531,232.833C111.01,235.125 110.25,238.5 110.25,242.958C110.25,247.75 111.094,251.385 112.781,253.865C114.469,256.344 116.938,257.583 120.188,257.583C121.938,257.583 123.583,257.24 125.125,256.552C126.667,255.865 128.229,254.75 129.813,253.208L131.688,255.021Z" style="fill:none;"/>
                    <path d="M153.875,226.458C156.25,226.458 158.5,226.885 160.625,227.74C162.75,228.594 164.615,229.771 166.219,231.271C167.823,232.771 169.094,234.552 170.031,236.615C170.969,238.677 171.438,240.938 171.438,243.396C171.438,245.938 170.969,248.271 170.031,250.396C169.094,252.521 167.823,254.354 166.219,255.896C164.615,257.438 162.75,258.646 160.625,259.521C158.5,260.396 156.25,260.833 153.875,260.833C151.542,260.833 149.323,260.406 147.219,259.552C145.115,258.698 143.271,257.5 141.688,255.958C140.104,254.417 138.854,252.573 137.938,250.427C137.021,248.281 136.563,245.938 136.563,243.396C136.563,240.938 137.021,238.667 137.938,236.583C138.854,234.5 140.104,232.708 141.688,231.208C143.271,229.708 145.115,228.542 147.219,227.708C149.323,226.875 151.542,226.458 153.875,226.458ZM153.875,229.458C152.333,229.458 150.927,229.792 149.656,230.458C148.385,231.125 147.302,232.073 146.406,233.302C145.51,234.531 144.823,236.01 144.344,237.74C143.865,239.469 143.625,241.375 143.625,243.458C143.625,245.625 143.865,247.583 144.344,249.333C144.823,251.083 145.51,252.573 146.406,253.802C147.302,255.031 148.375,255.979 149.625,256.646C150.875,257.313 152.292,257.646 153.875,257.646C155.458,257.646 156.896,257.313 158.188,256.646C159.479,255.979 160.583,255.021 161.5,253.771C162.417,252.521 163.125,251.021 163.625,249.271C164.125,247.521 164.375,245.583 164.375,243.458C164.375,241.375 164.125,239.479 163.625,237.771C163.125,236.063 162.417,234.594 161.5,233.365C160.583,232.135 159.479,231.177 158.188,230.49C156.896,229.802 155.458,229.458 153.875,229.458Z" style="fill:none;"/>
                    <path d="M188.25,250.208C188.25,251.958 188.292,253.333 188.375,254.333C188.458,255.333 188.677,256.094 189.031,256.615C189.385,257.135 189.896,257.479 190.563,257.646C191.229,257.813 192.167,257.938 193.375,258.021L193.375,260.208L176.75,260.208L176.75,258.021C177.958,257.938 178.917,257.813 179.625,257.646C180.333,257.479 180.875,257.146 181.25,256.646C181.625,256.146 181.865,255.427 181.969,254.49C182.073,253.552 182.125,252.292 182.125,250.708L182.125,242.708C182.125,240.333 182.094,238.354 182.031,236.771C181.969,235.188 181.854,234.104 181.688,233.521C181.563,232.979 181.417,232.552 181.25,232.24C181.083,231.927 180.813,231.677 180.438,231.49C180.063,231.302 179.573,231.177 178.969,231.115C178.365,231.052 177.583,231.021 176.625,231.021L176.625,228.833L186.813,226.458L187.625,232.708L187.938,232.708C189.813,230.583 191.781,229.01 193.844,227.99C195.906,226.969 198.188,226.458 200.688,226.458C203.313,226.458 205.521,226.99 207.313,228.052C209.104,229.115 210.354,230.646 211.063,232.646L211.313,232.646C212.854,230.688 214.729,229.167 216.938,228.083C219.146,227 221.5,226.458 224,226.458C225.958,226.458 227.74,226.781 229.344,227.427C230.948,228.073 232.167,228.958 233,230.083C233.75,231.042 234.281,232.302 234.594,233.865C234.906,235.427 235.063,237.563 235.063,240.271L235.063,250.208C235.063,251.917 235.115,253.271 235.219,254.271C235.323,255.271 235.542,256.042 235.875,256.583C236.208,257.125 236.719,257.479 237.406,257.646C238.094,257.813 239.042,257.938 240.25,258.021L240.25,260.208L223.625,260.208L223.625,258.021C224.792,257.979 225.729,257.865 226.438,257.677C227.146,257.49 227.688,257.135 228.063,256.615C228.438,256.094 228.677,255.375 228.781,254.458C228.885,253.542 228.938,252.292 228.938,250.708L228.938,242.833C228.938,240.458 228.813,238.448 228.563,236.802C228.313,235.156 227.896,233.823 227.313,232.802C226.729,231.781 225.969,231.042 225.031,230.583C224.094,230.125 222.958,229.896 221.625,229.896C219.792,229.896 218.073,230.406 216.469,231.427C214.865,232.448 213.604,233.813 212.688,235.521C212.479,235.938 212.302,236.344 212.156,236.74C212.01,237.135 211.896,237.573 211.813,238.052C211.729,238.531 211.677,239.104 211.656,239.771C211.635,240.438 211.625,241.271 211.625,242.271L211.625,250.208C211.625,251.917 211.667,253.271 211.75,254.271C211.833,255.271 212.052,256.042 212.406,256.583C212.76,257.125 213.292,257.479 214,257.646C214.708,257.813 215.667,257.938 216.875,258.021L216.875,260.208L200.25,260.208L200.25,258.021C201.417,257.938 202.354,257.813 203.063,257.646C203.771,257.479 204.302,257.146 204.656,256.646C205.01,256.146 205.24,255.427 205.344,254.49C205.448,253.552 205.5,252.292 205.5,250.708L205.5,242.833C205.5,240.417 205.375,238.385 205.125,236.74C204.875,235.094 204.469,233.76 203.906,232.74C203.344,231.719 202.604,230.99 201.688,230.552C200.771,230.115 199.646,229.896 198.313,229.896C196.438,229.896 194.677,230.406 193.031,231.427C191.385,232.448 190.146,233.813 189.313,235.521C189.104,235.938 188.927,236.344 188.781,236.74C188.635,237.135 188.521,237.573 188.438,238.052C188.354,238.531 188.302,239.104 188.281,239.771C188.26,240.438 188.25,241.271 188.25,242.271L188.25,250.208Z" style="fill:none;"/>
                </g>
                <g transform="matrix(3.00361,0,0,4.29197,0,0)">
                    <path d="M36.625,244.021C36.625,246.354 36.198,248.542 35.344,250.583C34.49,252.625 33.313,254.406 31.813,255.927C30.313,257.448 28.552,258.646 26.531,259.521C24.51,260.396 22.354,260.833 20.063,260.833C17.688,260.833 15.5,260.302 13.5,259.24C11.5,258.177 9.781,256.688 8.344,254.771C6.906,252.854 5.792,250.573 5,247.927C4.208,245.281 3.813,242.354 3.813,239.146C3.813,235.354 4.333,231.781 5.375,228.427C6.417,225.073 7.833,222.135 9.625,219.615C11.417,217.094 13.521,215.104 15.938,213.646C18.354,212.188 20.917,211.458 23.625,211.458C25.125,211.458 26.531,211.625 27.844,211.958C29.156,212.292 30.302,212.74 31.281,213.302C32.26,213.865 33.031,214.542 33.594,215.333C34.156,216.125 34.438,216.958 34.438,217.833C34.438,218.833 34.135,219.625 33.531,220.208C32.927,220.792 32.104,221.083 31.063,221.083C29.854,221.083 28.99,220.729 28.469,220.021C27.948,219.313 27.458,218.531 27,217.677C26.542,216.823 25.958,216.042 25.25,215.333C24.542,214.625 23.396,214.271 21.813,214.271C20.354,214.271 19.021,214.771 17.813,215.771C16.604,216.771 15.542,218.146 14.625,219.896C13.708,221.646 13,223.729 12.5,226.146C12,228.563 11.75,231.167 11.75,233.958L11.938,234.083C13.271,232.125 14.719,230.698 16.281,229.802C17.844,228.906 19.688,228.458 21.813,228.458C23.938,228.458 25.896,228.854 27.688,229.646C29.479,230.438 31.042,231.531 32.375,232.927C33.708,234.323 34.75,235.969 35.5,237.865C36.25,239.76 36.625,241.813 36.625,244.021ZM11.625,242.521C11.625,252.854 14.521,258.021 20.313,258.021C23.188,258.021 25.323,256.906 26.719,254.677C28.115,252.448 28.813,248.979 28.813,244.271C28.813,240.104 28.146,236.938 26.813,234.771C25.479,232.604 23.521,231.521 20.938,231.521C19.021,231.521 17.333,232.146 15.875,233.396C14.417,234.646 13,236.667 11.625,239.458L11.625,242.521Z" style="fill:white;fill-rule:nonzero;"/>
                    <path d="M62.5,211.458C65.042,211.458 67.438,212.104 69.688,213.396C71.938,214.688 73.896,216.458 75.563,218.708C77.229,220.958 78.552,223.604 79.531,226.646C80.51,229.688 81,232.979 81,236.521C81,239.896 80.51,243.063 79.531,246.021C78.552,248.979 77.229,251.552 75.563,253.74C73.896,255.927 71.938,257.656 69.688,258.927C67.438,260.198 65.042,260.833 62.5,260.833C59.958,260.833 57.563,260.198 55.313,258.927C53.063,257.656 51.104,255.927 49.438,253.74C47.771,251.552 46.448,248.979 45.469,246.021C44.49,243.063 44,239.896 44,236.521C44,232.979 44.49,229.688 45.469,226.646C46.448,223.604 47.771,220.958 49.438,218.708C51.104,216.458 53.063,214.688 55.313,213.396C57.563,212.104 59.958,211.458 62.5,211.458ZM62.5,257.833C64.125,257.833 65.573,257.5 66.844,256.833C68.115,256.167 69.198,255.021 70.094,253.396C70.99,251.771 71.677,249.604 72.156,246.896C72.635,244.188 72.875,240.792 72.875,236.708C72.875,232.458 72.635,228.917 72.156,226.083C71.677,223.25 71,220.969 70.125,219.24C69.25,217.51 68.167,216.281 66.875,215.552C65.583,214.823 64.125,214.458 62.5,214.458C60.875,214.458 59.417,214.823 58.125,215.552C56.833,216.281 55.75,217.51 54.875,219.24C54,220.969 53.323,223.25 52.844,226.083C52.365,228.917 52.125,232.458 52.125,236.708C52.125,240.792 52.365,244.188 52.844,246.896C53.323,249.604 54,251.771 54.875,253.396C55.75,255.021 56.833,256.167 58.125,256.833C59.417,257.5 60.875,257.833 62.5,257.833Z" style="fill:white;fill-rule:nonzero;"/>
                    <path d="M87.688,256.771C87.688,255.604 88.083,254.625 88.875,253.833C89.667,253.042 90.625,252.646 91.75,252.646C92.917,252.646 93.896,253.042 94.688,253.833C95.479,254.625 95.875,255.604 95.875,256.771C95.875,257.896 95.479,258.854 94.688,259.646C93.896,260.438 92.917,260.833 91.75,260.833C90.625,260.833 89.667,260.438 88.875,259.646C88.083,258.854 87.688,257.896 87.688,256.771Z" style="fill:white;fill-rule:nonzero;"/>
                    <path d="M131.688,255.021C130.188,256.854 128.25,258.281 125.875,259.302C123.5,260.323 120.938,260.833 118.188,260.833C115.979,260.833 113.948,260.427 112.094,259.615C110.24,258.802 108.646,257.656 107.313,256.177C105.979,254.698 104.948,252.917 104.219,250.833C103.49,248.75 103.125,246.438 103.125,243.896C103.125,241.229 103.542,238.823 104.375,236.677C105.208,234.531 106.385,232.698 107.906,231.177C109.427,229.656 111.26,228.49 113.406,227.677C115.552,226.865 117.917,226.458 120.5,226.458C122.125,226.458 123.604,226.594 124.938,226.865C126.271,227.135 127.427,227.51 128.406,227.99C129.385,228.469 130.146,229.052 130.688,229.74C131.229,230.427 131.5,231.167 131.5,231.958C131.5,232.792 131.229,233.438 130.688,233.896C130.146,234.354 129.396,234.583 128.438,234.583C127.688,234.583 127.063,234.427 126.563,234.115C126.063,233.802 125.417,233.104 124.625,232.021C123.792,231.063 122.99,230.385 122.219,229.99C121.448,229.594 120.458,229.396 119.25,229.396C116.292,229.396 114.052,230.542 112.531,232.833C111.01,235.125 110.25,238.5 110.25,242.958C110.25,247.75 111.094,251.385 112.781,253.865C114.469,256.344 116.938,257.583 120.188,257.583C121.938,257.583 123.583,257.24 125.125,256.552C126.667,255.865 128.229,254.75 129.813,253.208L131.688,255.021Z" style="fill:white;fill-rule:nonzero;"/>
                    <path d="M153.875,226.458C156.25,226.458 158.5,226.885 160.625,227.74C162.75,228.594 164.615,229.771 166.219,231.271C167.823,232.771 169.094,234.552 170.031,236.615C170.969,238.677 171.438,240.938 171.438,243.396C171.438,245.938 170.969,248.271 170.031,250.396C169.094,252.521 167.823,254.354 166.219,255.896C164.615,257.438 162.75,258.646 160.625,259.521C158.5,260.396 156.25,260.833 153.875,260.833C151.542,260.833 149.323,260.406 147.219,259.552C145.115,258.698 143.271,257.5 141.688,255.958C140.104,254.417 138.854,252.573 137.938,250.427C137.021,248.281 136.563,245.938 136.563,243.396C136.563,240.938 137.021,238.667 137.938,236.583C138.854,234.5 140.104,232.708 141.688,231.208C143.271,229.708 145.115,228.542 147.219,227.708C149.323,226.875 151.542,226.458 153.875,226.458ZM153.875,229.458C152.333,229.458 150.927,229.792 149.656,230.458C148.385,231.125 147.302,232.073 146.406,233.302C145.51,234.531 144.823,236.01 144.344,237.74C143.865,239.469 143.625,241.375 143.625,243.458C143.625,245.625 143.865,247.583 144.344,249.333C144.823,251.083 145.51,252.573 146.406,253.802C147.302,255.031 148.375,255.979 149.625,256.646C150.875,257.313 152.292,257.646 153.875,257.646C155.458,257.646 156.896,257.313 158.188,256.646C159.479,255.979 160.583,255.021 161.5,253.771C162.417,252.521 163.125,251.021 163.625,249.271C164.125,247.521 164.375,245.583 164.375,243.458C164.375,241.375 164.125,239.479 163.625,237.771C163.125,236.063 162.417,234.594 161.5,233.365C160.583,232.135 159.479,231.177 158.188,230.49C156.896,229.802 155.458,229.458 153.875,229.458Z" style="fill:white;fill-rule:nonzero;"/>
                    <path d="M188.25,250.208C188.25,251.958 188.292,253.333 188.375,254.333C188.458,255.333 188.677,256.094 189.031,256.615C189.385,257.135 189.896,257.479 190.563,257.646C191.229,257.813 192.167,257.938 193.375,258.021L193.375,260.208L176.75,260.208L176.75,258.021C177.958,257.938 178.917,257.813 179.625,257.646C180.333,257.479 180.875,257.146 181.25,256.646C181.625,256.146 181.865,255.427 181.969,254.49C182.073,253.552 182.125,252.292 182.125,250.708L182.125,242.708C182.125,240.333 182.094,238.354 182.031,236.771C181.969,235.188 181.854,234.104 181.688,233.521C181.563,232.979 181.417,232.552 181.25,232.24C181.083,231.927 180.813,231.677 180.438,231.49C180.063,231.302 179.573,231.177 178.969,231.115C178.365,231.052 177.583,231.021 176.625,231.021L176.625,228.833L186.813,226.458L187.625,232.708L187.938,232.708C189.813,230.583 191.781,229.01 193.844,227.99C195.906,226.969 198.188,226.458 200.688,226.458C203.313,226.458 205.521,226.99 207.313,228.052C209.104,229.115 210.354,230.646 211.063,232.646L211.313,232.646C212.854,230.688 214.729,229.167 216.938,228.083C219.146,227 221.5,226.458 224,226.458C225.958,226.458 227.74,226.781 229.344,227.427C230.948,228.073 232.167,228.958 233,230.083C233.75,231.042 234.281,232.302 234.594,233.865C234.906,235.427 235.063,237.563 235.063,240.271L235.063,250.208C235.063,251.917 235.115,253.271 235.219,254.271C235.323,255.271 235.542,256.042 235.875,256.583C236.208,257.125 236.719,257.479 237.406,257.646C238.094,257.813 239.042,257.938 240.25,258.021L240.25,260.208L223.625,260.208L223.625,258.021C224.792,257.979 225.729,257.865 226.438,257.677C227.146,257.49 227.688,257.135 228.063,256.615C228.438,256.094 228.677,255.375 228.781,254.458C228.885,253.542 228.938,252.292 228.938,250.708L228.938,242.833C228.938,240.458 228.813,238.448 228.563,236.802C228.313,235.156 227.896,233.823 227.313,232.802C226.729,231.781 225.969,231.042 225.031,230.583C224.094,230.125 222.958,229.896 221.625,229.896C219.792,229.896 218.073,230.406 216.469,231.427C214.865,232.448 213.604,233.813 212.688,235.521C212.479,235.938 212.302,236.344 212.156,236.74C212.01,237.135 211.896,237.573 211.813,238.052C211.729,238.531 211.677,239.104 211.656,239.771C211.635,240.438 211.625,241.271 211.625,242.271L211.625,250.208C211.625,251.917 211.667,253.271 211.75,254.271C211.833,255.271 212.052,256.042 212.406,256.583C212.76,257.125 213.292,257.479 214,257.646C214.708,257.813 215.667,257.938 216.875,258.021L216.875,260.208L200.25,260.208L200.25,258.021C201.417,257.938 202.354,257.813 203.063,257.646C203.771,257.479 204.302,257.146 204.656,256.646C205.01,256.146 205.24,255.427 205.344,254.49C205.448,253.552 205.5,252.292 205.5,250.708L205.5,242.833C205.5,240.417 205.375,238.385 205.125,236.74C204.875,235.094 204.469,233.76 203.906,232.74C203.344,231.719 202.604,230.99 201.688,230.552C200.771,230.115 199.646,229.896 198.313,229.896C196.438,229.896 194.677,230.406 193.031,231.427C191.385,232.448 190.146,233.813 189.313,235.521C189.104,235.938 188.927,236.344 188.781,236.74C188.635,237.135 188.521,237.573 188.438,238.052C188.354,238.531 188.302,239.104 188.281,239.771C188.26,240.438 188.25,241.271 188.25,242.271L188.25,250.208Z" style="fill:white;fill-rule:nonzero;"/>
                </g>
            </g>
        </g>
    </g>
</svg>
